<?xml version="1.0" ?>
<!-- Uploaded to: SVG Repo, www.svgrepo.com, Generator: SVG Repo Mixer Tools -->
<svg width="800px" height="800px" viewBox="0 0 1000 1000" id="Layer_2" version="1.1" xml:space="preserve" xmlns="http://www.w3.org/2000/svg" xmlns:xlink="http://www.w3.org/1999/xlink">
<g>
<path d="M172.749,675.255c0,16.568,13.432,30,30,30h206.469c14.252,0,26.537,10.027,29.392,23.991   l4.27,20.884h114.24l4.27-20.884c2.855-13.963,15.14-23.991,29.392-23.991h206.469c16.569,0,30-13.432,30-30V639.3H172.749V675.255   z" style="fill:#231F20;"/>
<path d="M797.251,246.87h-47.839v173.412c0,30.327-24.673,55-55,55H570.828l-42.615,62.845   c-6.351,9.366-16.897,14.957-28.213,14.957s-21.862-5.591-28.213-14.956l-42.615-62.846H305.588c-30.327,0-55-24.673-55-55V246.87   h-47.839c-16.568,0-30,13.431-30,30V614.3h654.502V276.87C827.251,260.301,813.819,246.87,797.251,246.87z" style="fill:#231F20;"/>
<path d="M564.7,776.839c-0.52-0.55-1.02-1.12-1.49-1.71H436.79c-0.47,0.59-0.97,1.16-1.49,1.71l-34.06,35.98   c-5.271,5.58-8.21,12.95-8.21,20.63v14.32H606.97v-14.32c0-7.68-2.939-15.05-8.21-20.63L564.7,776.839z" style="fill:#231F20;"/>
<path d="M499.214,279.766c-4.474,0-8.082,1.54-10.84,4.626c-2.758,3.087-4.137,6.936-4.137,11.53   c0,4.602,1.379,8.371,4.137,11.329c2.758,2.959,6.366,4.434,10.84,4.434c4.33,0,7.906-1.475,10.744-4.434   c2.822-2.958,4.233-6.727,4.233-11.329c0-4.594-1.411-8.443-4.233-11.53C507.12,281.305,503.544,279.766,499.214,279.766z" style="fill:#231F20;"/>
<path d="M305.588,450.282h136.838l50.053,73.815c3.605,5.317,11.438,5.317,15.043,0l50.053-73.815h136.838   c16.5,0,30-13.5,30-30V182.231c0-16.5-13.5-30-30-30H305.588c-16.5,0-30,13.5-30,30v238.051   C275.588,436.782,289.088,450.282,305.588,450.282z M404.904,184.499h269.692c6.903,0,12.5,5.596,12.5,12.5   c0,6.904-5.597,12.5-12.5,12.5H404.904c-6.903,0-12.5-5.596-12.5-12.5C392.404,190.096,398,184.499,404.904,184.499z    M540.394,301.342c2.886-3.872,4.33-9.493,4.33-16.854c0-5.773-1.01-10.896-3.047-15.363c-2.037-4.466-4.923-8.242-8.675-11.337   c-3.736-3.079-8.211-5.412-13.39-6.992c-5.195-1.579-10.937-2.365-17.239-2.365c-5.917,0-11.561,1.05-16.95,3.151   c-5.388,2.109-10.183,5.124-14.384,9.068c-4.217,3.937-7.553,8.804-10.055,14.577c-2.501,5.789-3.736,12.356-3.736,19.708   c0,6.567,1.107,12.676,3.336,18.329c2.245,5.645,5.42,10.576,9.558,14.777c4.137,4.201,9.172,7.489,15.074,9.854   c5.917,2.357,12.62,3.544,20.109,3.544c6.431,0,11.53-0.593,15.267-1.772c3.753-1.187,6.799-2.534,9.172-4.041   c2.357-1.507,4.458-2.854,6.302-4.041c1.828-1.178,4.137-1.772,6.896-1.772c2.229,0,4.169,1.018,5.805,3.055   c1.652,2.037,2.47,4.306,2.47,6.799c0,3.151-1.54,6.005-4.634,8.571c-3.079,2.558-6.928,4.731-11.53,6.503   c-4.602,1.772-9.589,3.119-14.978,4.041c-5.388,0.914-10.375,1.379-14.961,1.379c-9.862,0-18.858-1.644-27.004-4.931   c-8.147-3.279-15.17-7.785-21.087-13.494c-5.901-5.717-10.471-12.42-13.694-20.101c-3.223-7.681-4.827-15.988-4.827-24.928   c0-11.161,1.78-20.887,5.324-29.162c3.544-8.274,8.242-15.17,14.095-20.694c5.837-5.516,12.572-9.622,20.19-12.315   c7.617-2.686,15.507-4.033,23.653-4.033c19.564,0,34.414,4.434,44.532,13.302c10.103,8.86,15.17,22.362,15.17,40.491   c0,6.831-1.059,12.877-3.159,18.129c-2.101,5.252-4.731,9.686-7.874,13.302c-3.159,3.616-6.639,6.334-10.439,8.178   c-3.816,1.836-7.425,2.758-10.84,2.758c-3.817,0-6.671-0.297-8.579-0.89c-1.909-0.593-3.384-1.868-4.426-3.841   c-2.373,1.972-5.035,3.448-7.986,4.434c-2.951,0.986-5.949,1.475-8.964,1.475c-4.33,0-8.403-0.85-12.219-2.558   c-3.817-1.708-7.088-4.009-9.846-6.896c-2.758-2.895-4.971-6.278-6.607-10.151c-1.652-3.873-2.47-7.978-2.47-12.316   c0-4.466,0.818-8.668,2.47-12.612c1.636-3.945,3.849-7.352,6.607-10.247c2.758-2.887,6.029-5.156,9.846-6.799   c3.816-1.636,7.89-2.461,12.219-2.461c5.645,0,10.776,1.58,15.362,4.73c1.186-2.63,3.881-3.945,8.082-3.945   c5.26,0,7.89,2.438,7.89,7.296v37.436C534.221,307.877,537.508,305.215,540.394,301.342z M404.904,381.166h269.692   c6.903,0,12.5,5.596,12.5,12.5c0,6.904-5.597,12.5-12.5,12.5H404.904c-6.903,0-12.5-5.596-12.5-12.5   C392.404,386.762,398,381.166,404.904,381.166z M325.404,184.499h33.192c6.903,0,12.5,5.596,12.5,12.5   c0,6.904-5.597,12.5-12.5,12.5h-33.192c-6.903,0-12.5-5.596-12.5-12.5C312.904,190.096,318.5,184.499,325.404,184.499z    M312.904,393.666c0-6.903,5.597-12.5,12.5-12.5h33.192c6.903,0,12.5,5.597,12.5,12.5v0c0,6.904-5.597,12.5-12.5,12.5h-33.192   C318.5,406.166,312.904,400.569,312.904,393.666L312.904,393.666z" style="fill:#231F20;"/>
</g>
</svg>